<svg xmlns="http://www.w3.org/2000/svg" width="450" height="195"><style>.stat{font:700 14px'Segoe UI',Ubuntu,Sans-Serif}@supports (-moz-appearance:auto){.stat{font-size:12px}}.icon{fill:#07c;display:block}</style><text x="25" y="35" style="font:600 18px'Segoe UI',Ubuntu,Sans-Serif;fill:#06f">AutumnVN's GitHub Stats</text><svg width="66" height="66" x="330" y="77" viewBox="0 0 16 16"><path d="M8 0c4.42 0 8 3.58 8 8a8.013 8.013 0 0 1-5.45 7.59c-.4.08-.55-.17-.55-.38 0-.27.01-1.13.01-2.2 0-.75-.25-1.23-.54-1.48 1.78-.2 3.65-.88 3.65-3.95 0-.88-.31-1.59-.82-2.15.08-.2.36-1.02-.08-2.12 0 0-.67-.22-2.2.82-.64-.18-1.32-.27-2-.27-.68 0-1.36.09-2 .27-1.53-1.03-2.2-.82-2.2-.82-.44 1.1-.16 1.92-.08 2.12-.51.56-.82 1.28-.82 2.15 0 3.06 1.86 3.75 3.64 3.95-.23.2-.44.55-.51 1.07-.46.21-1.61.55-2.33-.66-.15-.24-.6-.83-1.23-.82-.67.01-.27.38.01.53.34.19.73.9.82 1.13.16.45.68 1.31 2.69.94 0 .67.01 1.3.01 1.49 0 .21-.15.45-.55.38A7.995 7.995 0 0 1 0 8c0-4.42 3.58-8 8-8Z"/></svg><svg x="25" y="55"><g><svg width="16" height="16" class="icon" viewBox="0 0 16 16"><path fill-rule="evenodd" d="M8 .25a.75.75 0 0 1 .673.418l1.882 3.815 4.21.612a.75.75 0 0 1 .416 1.279l-3.046 2.97.719 4.192a.75.75 0 0 1-1.088.791L8 12.347l-3.766 1.98a.75.75 0 0 1-1.088-.79l.72-4.194L.818 6.374a.75.75 0 0 1 .416-1.28l4.21-.611L7.327.668A.75.75 0 0 1 8 .25zm0 2.445L6.615 5.5a.75.75 0 0 1-.564.41l-3.097.45 2.24 2.184a.75.75 0 0 1 .216.664l-.528 3.084 2.769-1.456a.75.75 0 0 1 .698 0l2.77 1.456-.53-3.084a.75.75 0 0 1 .216-.664l2.24-2.183-3.096-.45a.75.75 0 0 1-.564-.41L8 2.694v.001z"/></svg><text x="25" y="12" class="stat">Total Stars Earned:</text><text x="219" y="12" class="stat">56</text></g><g transform="translate(0 25)"><svg width="16" height="16" class="icon" viewBox="0 0 16 16"><path fill-rule="evenodd" d="M5 3.25a.75.75 0 1 1-1.5 0 .75.75 0 0 1 1.5 0zm0 2.122a2.25 2.25 0 1 0-1.5 0v.878A2.25 2.25 0 0 0 5.75 8.5h1.5v2.128a2.251 2.251 0 1 0 1.5 0V8.5h1.5a2.25 2.25 0 0 0 2.25-2.25v-.878a2.25 2.25 0 1 0-1.5 0v.878a.75.75 0 0 1-.75.75h-4.5A.75.75 0 0 1 5 6.25v-.878zm3.75 7.378a.75.75 0 1 1-1.5 0 .75.75 0 0 1 1.5 0zm3-8.75a.75.75 0 1 0 0-1.5.75.75 0 0 0 0 1.5z"/></svg><text x="25" y="12" class="stat">Total Forks Earned:</text><text x="219" y="12" class="stat">22</text></g><g transform="translate(0 50)"><svg width="16" height="16" class="icon" viewBox="0 0 16 16"><path fill-rule="evenodd" d="M1.643 3.143.427 1.927A.25.25 0 0 0 0 2.104V5.75c0 .138.112.25.25.25h3.646a.25.25 0 0 0 .177-.427L2.715 4.215a6.5 6.5 0 1 1-1.18 4.458.75.75 0 1 0-1.493.154 8.001 8.001 0 1 0 1.6-5.684zM7.75 4a.75.75 0 0 1 .75.75v2.992l2.028.812a.75.75 0 0 1-.557 1.392l-2.5-1A.75.75 0 0 1 7 8.25v-3.5A.75.75 0 0 1 7.75 4z"/></svg><text x="25" y="12" class="stat">Total Commits (2023):</text><text x="219" y="12" class="stat">404</text></g><g transform="translate(0 75)"><svg width="16" height="16" class="icon" viewBox="0 0 16 16"><path fill-rule="evenodd" d="M7.177 3.073 9.573.677A.25.25 0 0 1 10 .854v4.792a.25.25 0 0 1-.427.177L7.177 3.427a.25.25 0 0 1 0-.354zM3.75 2.5a.75.75 0 1 0 0 1.5.75.75 0 0 0 0-1.5zm-2.25.75a2.25 2.25 0 1 1 3 2.122v5.256a2.251 2.251 0 1 1-1.5 0V5.372A2.25 2.25 0 0 1 1.5 3.25zM11 2.5h-1V4h1a1 1 0 0 1 1 1v5.628a2.251 2.251 0 1 0 1.5 0V5A2.5 2.5 0 0 0 11 2.5zm1 10.25a.75.75 0 1 1 1.5 0 .75.75 0 0 1-1.5 0zM3.75 12a.75.75 0 1 0 0 1.5.75.75 0 0 0 0-1.5z"/></svg><text x="25" y="12" class="stat">Total PRs:</text><text x="219" y="12" class="stat">56</text></g><g transform="translate(0 100)"><svg width="16" height="16" class="icon" viewBox="0 0 16 16"><path fill-rule="evenodd" d="M2 2.5A2.5 2.5 0 0 1 4.5 0h8.75a.75.75 0 0 1 .75.75v12.5a.75.75 0 0 1-.75.75h-2.5a.75.75 0 1 1 0-1.5h1.75v-2h-8a1 1 0 0 0-.714 1.7.75.75 0 0 1-1.072 1.05A2.495 2.495 0 0 1 2 11.5v-9zm10.5-1V9h-8c-.356 0-.694.074-1 .208V2.5a1 1 0 0 1 1-1h8zM5 12.25v3.25a.25.25 0 0 0 .4.2l1.45-1.087a.25.25 0 0 1 .3 0L8.6 15.7a.25.25 0 0 0 .4-.2v-3.25a.25.25 0 0 0-.25-.25h-3.5a.25.25 0 0 0-.25.25z"/></svg><text x="25" y="12" class="stat">Contributed to (last year):</text><text x="219" y="12" class="stat">12</text></g></svg></svg>